<?xml version="1.0" encoding="UTF-8" standalone="no"?>
<!DOCTYPE svg PUBLIC "-//W3C//DTD SVG 1.1//EN"
 "http://www.w3.org/Graphics/SVG/1.1/DTD/svg11.dtd">
<!-- Generated by graphviz version 14.1.1 (20251213.1925)
 -->
<!-- Title: DataStructure Pages: 1 -->
<svg width="362pt" height="520pt"
 viewBox="0.00 0.00 362.00 520.00" xmlns="http://www.w3.org/2000/svg" xmlns:xlink="http://www.w3.org/1999/xlink">
<g id="graph0" class="graph" transform="scale(1 1) rotate(0) translate(4 516)">
<title>DataStructure</title>
<!-- zset -->
<g id="node1" class="node">
<title>zset</title>
<polygon fill="white" stroke="none" points="11.38,-279.25 11.38,-512 340.62,-512 340.62,-279.25 11.38,-279.25"/>
<polygon fill="#e3f2fd" stroke="none" points="11.38,-474.25 11.38,-512 340.62,-512 340.62,-474.25 11.38,-474.25"/>
<polyline fill="none" stroke="black" points="11.38,-474.25 340.62,-474.25"/>
<text xml:space="preserve" text-anchor="start" x="64.06" y="-485.8" font-family="Arial, Helvetica, sans-serif" font-size="16.00">⬆️</text>
<text xml:space="preserve" text-anchor="start" x="173.19" y="-488.7" font-family="Arial, Helvetica, sans-serif" font-weight="bold" font-size="14.00">Sorted Set (ZSET)</text>
<polygon fill="#f5f5f5" stroke="none" points="11.38,-444.25 11.38,-474.25 340.62,-474.25 340.62,-444.25 11.38,-444.25"/>
<polyline fill="none" stroke="black" points="11.38,-444.25 340.62,-444.25"/>
<text xml:space="preserve" text-anchor="start" x="102.88" y="-456.75" font-family="Arial, Helvetica, sans-serif" font-style="italic" font-size="10.00">Tracks items with eviction scores</text>
<polygon fill="#bbdefb" stroke="none" points="11.38,-410.5 11.38,-444.25 174.12,-444.25 174.12,-410.5 11.38,-410.5"/>
<polygon fill="none" stroke="black" points="11.38,-410.5 11.38,-444.25 174.12,-444.25 174.12,-410.5 11.38,-410.5"/>
<text xml:space="preserve" text-anchor="start" x="21.5" y="-422.95" font-family="Arial, Helvetica, sans-serif" font-size="14.00"> &#160;&#160;&#160;&#160;&#160;&#160;&#160;&#160;&#160;&#160;&#160;&#160;&#160;&#160;&#160;</text>
<text xml:space="preserve" text-anchor="start" x="81.5" y="-422.95" font-family="Arial, Helvetica, sans-serif" font-weight="bold" font-size="11.00">hash_1</text>
<text xml:space="preserve" text-anchor="start" x="119" y="-422.95" font-family="Arial, Helvetica, sans-serif" font-size="14.00"> &#160;&#160;&#160;&#160;&#160;&#160;&#160;&#160;&#160;&#160;&#160;</text>
<polygon fill="#c8e6c9" stroke="none" points="174.12,-410.5 174.12,-444.25 340.62,-444.25 340.62,-410.5 174.12,-410.5"/>
<polygon fill="none" stroke="black" points="174.12,-410.5 174.12,-444.25 340.62,-444.25 340.62,-410.5 174.12,-410.5"/>
<text xml:space="preserve" text-anchor="start" x="184.25" y="-422.95" font-family="Arial, Helvetica, sans-serif" font-size="14.00"> &#160;&#160;&#160;&#160;&#160;&#160;&#160;&#160;&#160;&#160;&#160;&#160;&#160;&#160;&#160;</text>
<text xml:space="preserve" text-anchor="start" x="244.25" y="-422.95" font-family="Arial, Helvetica, sans-serif" font-weight="bold" font-size="11.00" fill="#1b5e20">score_1</text>
<text xml:space="preserve" text-anchor="start" x="285.5" y="-422.95" font-family="Arial, Helvetica, sans-serif" font-size="14.00"> &#160;&#160;&#160;&#160;&#160;&#160;&#160;&#160;&#160;&#160;&#160;</text>
<polygon fill="#bbdefb" stroke="none" points="11.38,-376.75 11.38,-410.5 174.12,-410.5 174.12,-376.75 11.38,-376.75"/>
<polygon fill="none" stroke="black" points="11.38,-376.75 11.38,-410.5 174.12,-410.5 174.12,-376.75 11.38,-376.75"/>
<text xml:space="preserve" text-anchor="start" x="21.5" y="-389.2" font-family="Arial, Helvetica, sans-serif" font-size="14.00"> &#160;&#160;&#160;&#160;&#160;&#160;&#160;&#160;&#160;&#160;&#160;&#160;&#160;&#160;&#160;</text>
<text xml:space="preserve" text-anchor="start" x="81.5" y="-389.2" font-family="Arial, Helvetica, sans-serif" font-weight="bold" font-size="11.00">hash_2</text>
<text xml:space="preserve" text-anchor="start" x="119" y="-389.2" font-family="Arial, Helvetica, sans-serif" font-size="14.00"> &#160;&#160;&#160;&#160;&#160;&#160;&#160;&#160;&#160;&#160;&#160;</text>
<polygon fill="#c8e6c9" stroke="none" points="174.12,-376.75 174.12,-410.5 340.62,-410.5 340.62,-376.75 174.12,-376.75"/>
<polygon fill="none" stroke="black" points="174.12,-376.75 174.12,-410.5 340.62,-410.5 340.62,-376.75 174.12,-376.75"/>
<text xml:space="preserve" text-anchor="start" x="184.25" y="-389.2" font-family="Arial, Helvetica, sans-serif" font-size="14.00"> &#160;&#160;&#160;&#160;&#160;&#160;&#160;&#160;&#160;&#160;&#160;&#160;&#160;&#160;&#160;</text>
<text xml:space="preserve" text-anchor="start" x="244.25" y="-389.2" font-family="Arial, Helvetica, sans-serif" font-weight="bold" font-size="11.00" fill="#1b5e20">score_2</text>
<text xml:space="preserve" text-anchor="start" x="285.5" y="-389.2" font-family="Arial, Helvetica, sans-serif" font-size="14.00"> &#160;&#160;&#160;&#160;&#160;&#160;&#160;&#160;&#160;&#160;&#160;</text>
<polygon fill="#bbdefb" stroke="none" points="11.38,-343 11.38,-376.75 174.12,-376.75 174.12,-343 11.38,-343"/>
<polygon fill="none" stroke="black" points="11.38,-343 11.38,-376.75 174.12,-376.75 174.12,-343 11.38,-343"/>
<text xml:space="preserve" text-anchor="start" x="21.5" y="-355.45" font-family="Arial, Helvetica, sans-serif" font-size="14.00"> &#160;&#160;&#160;&#160;&#160;&#160;&#160;&#160;&#160;&#160;&#160;&#160;&#160;&#160;&#160;</text>
<text xml:space="preserve" text-anchor="start" x="81.5" y="-355.45" font-family="Arial, Helvetica, sans-serif" font-weight="bold" font-size="11.00">hash_3</text>
<text xml:space="preserve" text-anchor="start" x="119" y="-355.45" font-family="Arial, Helvetica, sans-serif" font-size="14.00"> &#160;&#160;&#160;&#160;&#160;&#160;&#160;&#160;&#160;&#160;&#160;</text>
<polygon fill="#c8e6c9" stroke="none" points="174.12,-343 174.12,-376.75 340.62,-376.75 340.62,-343 174.12,-343"/>
<polygon fill="none" stroke="black" points="174.12,-343 174.12,-376.75 340.62,-376.75 340.62,-343 174.12,-343"/>
<text xml:space="preserve" text-anchor="start" x="184.25" y="-355.45" font-family="Arial, Helvetica, sans-serif" font-size="14.00"> &#160;&#160;&#160;&#160;&#160;&#160;&#160;&#160;&#160;&#160;&#160;&#160;&#160;&#160;&#160;</text>
<text xml:space="preserve" text-anchor="start" x="244.25" y="-355.45" font-family="Arial, Helvetica, sans-serif" font-weight="bold" font-size="11.00" fill="#1b5e20">score_3</text>
<text xml:space="preserve" text-anchor="start" x="285.5" y="-355.45" font-family="Arial, Helvetica, sans-serif" font-size="14.00"> &#160;&#160;&#160;&#160;&#160;&#160;&#160;&#160;&#160;&#160;&#160;</text>
<polygon fill="#f0f0f0" stroke="none" points="11.38,-313 11.38,-343 340.62,-343 340.62,-313 11.38,-313"/>
<polygon fill="none" stroke="black" points="11.38,-313 11.38,-343 340.62,-343 340.62,-313 11.38,-313"/>
<text xml:space="preserve" text-anchor="start" x="171.5" y="-324.5" font-family="Arial, Helvetica, sans-serif" font-size="10.00" fill="#666666">...</text>
<polygon fill="#bbdefb" stroke="none" points="11.38,-279.25 11.38,-313 174.12,-313 174.12,-279.25 11.38,-279.25"/>
<polygon fill="none" stroke="black" points="11.38,-279.25 11.38,-313 174.12,-313 174.12,-279.25 11.38,-279.25"/>
<text xml:space="preserve" text-anchor="start" x="20.38" y="-291.7" font-family="Arial, Helvetica, sans-serif" font-size="14.00"> &#160;&#160;&#160;&#160;&#160;&#160;&#160;&#160;&#160;&#160;&#160;&#160;&#160;&#160;&#160;</text>
<text xml:space="preserve" text-anchor="start" x="80.38" y="-291.7" font-family="Arial, Helvetica, sans-serif" font-weight="bold" font-size="11.00">hash_N</text>
<text xml:space="preserve" text-anchor="start" x="120.12" y="-291.7" font-family="Arial, Helvetica, sans-serif" font-size="14.00"> &#160;&#160;&#160;&#160;&#160;&#160;&#160;&#160;&#160;&#160;&#160;</text>
<polygon fill="#c8e6c9" stroke="none" points="174.12,-279.25 174.12,-313 340.62,-313 340.62,-279.25 174.12,-279.25"/>
<polygon fill="none" stroke="black" points="174.12,-279.25 174.12,-313 340.62,-313 340.62,-279.25 174.12,-279.25"/>
<text xml:space="preserve" text-anchor="start" x="183.12" y="-291.7" font-family="Arial, Helvetica, sans-serif" font-size="14.00"> &#160;&#160;&#160;&#160;&#160;&#160;&#160;&#160;&#160;&#160;&#160;&#160;&#160;&#160;&#160;</text>
<text xml:space="preserve" text-anchor="start" x="243.12" y="-291.7" font-family="Arial, Helvetica, sans-serif" font-weight="bold" font-size="11.00" fill="#1b5e20">score_N</text>
<text xml:space="preserve" text-anchor="start" x="286.62" y="-291.7" font-family="Arial, Helvetica, sans-serif" font-size="14.00"> &#160;&#160;&#160;&#160;&#160;&#160;&#160;&#160;&#160;&#160;&#160;</text>
</g>
<!-- hashmap -->
<g id="node2" class="node">
<title>hashmap</title>
<polygon fill="white" stroke="none" points="11.62,0 11.62,-232.75 354.38,-232.75 354.38,0 11.62,0"/>
<polygon fill="#fff3e0" stroke="none" points="11.62,-195 11.62,-232.75 354.38,-232.75 354.38,-195 11.62,-195"/>
<polyline fill="none" stroke="black" points="11.62,-195 354.38,-195"/>
<text xml:space="preserve" text-anchor="start" x="68.44" y="-206.55" font-family="Arial, Helvetica, sans-serif" font-size="16.00">#️⃣</text>
<text xml:space="preserve" text-anchor="start" x="185.81" y="-209.45" font-family="Arial, Helvetica, sans-serif" font-weight="bold" font-size="14.00">HashMap (HASH)</text>
<polygon fill="#f5f5f5" stroke="none" points="11.62,-165 11.62,-195 354.38,-195 354.38,-165 11.62,-165"/>
<polyline fill="none" stroke="black" points="11.62,-165 354.38,-165"/>
<text xml:space="preserve" text-anchor="start" x="121.88" y="-177.5" font-family="Arial, Helvetica, sans-serif" font-style="italic" font-size="10.00">Stores cached return values</text>
<polygon fill="#ffe0b2" stroke="none" points="11.62,-131.25 11.62,-165 174.38,-165 174.38,-131.25 11.62,-131.25"/>
<polygon fill="none" stroke="black" points="11.62,-131.25 11.62,-165 174.38,-165 174.38,-131.25 11.62,-131.25"/>
<text xml:space="preserve" text-anchor="start" x="21.75" y="-143.7" font-family="Arial, Helvetica, sans-serif" font-size="14.00"> &#160;&#160;&#160;&#160;&#160;&#160;&#160;&#160;&#160;&#160;&#160;&#160;&#160;&#160;&#160;</text>
<text xml:space="preserve" text-anchor="start" x="81.75" y="-143.7" font-family="Arial, Helvetica, sans-serif" font-weight="bold" font-size="11.00" fill="#e65100">hash_1</text>
<text xml:space="preserve" text-anchor="start" x="119.25" y="-143.7" font-family="Arial, Helvetica, sans-serif" font-size="14.00"> &#160;&#160;&#160;&#160;&#160;&#160;&#160;&#160;&#160;&#160;&#160;</text>
<polygon fill="#81c784" stroke="none" points="174.38,-131.25 174.38,-165 354.38,-165 354.38,-131.25 174.38,-131.25"/>
<polygon fill="none" stroke="black" points="174.38,-131.25 174.38,-165 354.38,-165 354.38,-131.25 174.38,-131.25"/>
<text xml:space="preserve" text-anchor="start" x="192" y="-143.7" font-family="Arial, Helvetica, sans-serif" font-size="14.00"> &#160;&#160;&#160;&#160;&#160;&#160;&#160;&#160;&#160;&#160;&#160;&#160;&#160;&#160;&#160;</text>
<text xml:space="preserve" text-anchor="start" x="252" y="-143.7" font-family="Arial, Helvetica, sans-serif" font-weight="bold" font-size="11.00" fill="#1b5e20">value_1</text>
<text xml:space="preserve" text-anchor="start" x="291.75" y="-143.7" font-family="Arial, Helvetica, sans-serif" font-size="14.00"> &#160;&#160;&#160;&#160;&#160;&#160;&#160;&#160;&#160;&#160;&#160;</text>
<polygon fill="#ffe0b2" stroke="none" points="11.62,-97.5 11.62,-131.25 174.38,-131.25 174.38,-97.5 11.62,-97.5"/>
<polygon fill="none" stroke="black" points="11.62,-97.5 11.62,-131.25 174.38,-131.25 174.38,-97.5 11.62,-97.5"/>
<text xml:space="preserve" text-anchor="start" x="21.75" y="-109.95" font-family="Arial, Helvetica, sans-serif" font-size="14.00"> &#160;&#160;&#160;&#160;&#160;&#160;&#160;&#160;&#160;&#160;&#160;&#160;&#160;&#160;&#160;</text>
<text xml:space="preserve" text-anchor="start" x="81.75" y="-109.95" font-family="Arial, Helvetica, sans-serif" font-weight="bold" font-size="11.00" fill="#e65100">hash_2</text>
<text xml:space="preserve" text-anchor="start" x="119.25" y="-109.95" font-family="Arial, Helvetica, sans-serif" font-size="14.00"> &#160;&#160;&#160;&#160;&#160;&#160;&#160;&#160;&#160;&#160;&#160;</text>
<polygon fill="#81c784" stroke="none" points="174.38,-97.5 174.38,-131.25 354.38,-131.25 354.38,-97.5 174.38,-97.5"/>
<polygon fill="none" stroke="black" points="174.38,-97.5 174.38,-131.25 354.38,-131.25 354.38,-97.5 174.38,-97.5"/>
<text xml:space="preserve" text-anchor="start" x="192" y="-109.95" font-family="Arial, Helvetica, sans-serif" font-size="14.00"> &#160;&#160;&#160;&#160;&#160;&#160;&#160;&#160;&#160;&#160;&#160;&#160;&#160;&#160;&#160;</text>
<text xml:space="preserve" text-anchor="start" x="252" y="-109.95" font-family="Arial, Helvetica, sans-serif" font-weight="bold" font-size="11.00" fill="#1b5e20">value_2</text>
<text xml:space="preserve" text-anchor="start" x="291.75" y="-109.95" font-family="Arial, Helvetica, sans-serif" font-size="14.00"> &#160;&#160;&#160;&#160;&#160;&#160;&#160;&#160;&#160;&#160;&#160;</text>
<polygon fill="#ffe0b2" stroke="none" points="11.62,-63.75 11.62,-97.5 174.38,-97.5 174.38,-63.75 11.62,-63.75"/>
<polygon fill="none" stroke="black" points="11.62,-63.75 11.62,-97.5 174.38,-97.5 174.38,-63.75 11.62,-63.75"/>
<text xml:space="preserve" text-anchor="start" x="21.75" y="-76.2" font-family="Arial, Helvetica, sans-serif" font-size="14.00"> &#160;&#160;&#160;&#160;&#160;&#160;&#160;&#160;&#160;&#160;&#160;&#160;&#160;&#160;&#160;</text>
<text xml:space="preserve" text-anchor="start" x="81.75" y="-76.2" font-family="Arial, Helvetica, sans-serif" font-weight="bold" font-size="11.00" fill="#e65100">hash_3</text>
<text xml:space="preserve" text-anchor="start" x="119.25" y="-76.2" font-family="Arial, Helvetica, sans-serif" font-size="14.00"> &#160;&#160;&#160;&#160;&#160;&#160;&#160;&#160;&#160;&#160;&#160;</text>
<polygon fill="#81c784" stroke="none" points="174.38,-63.75 174.38,-97.5 354.38,-97.5 354.38,-63.75 174.38,-63.75"/>
<polygon fill="none" stroke="black" points="174.38,-63.75 174.38,-97.5 354.38,-97.5 354.38,-63.75 174.38,-63.75"/>
<text xml:space="preserve" text-anchor="start" x="192" y="-76.2" font-family="Arial, Helvetica, sans-serif" font-size="14.00"> &#160;&#160;&#160;&#160;&#160;&#160;&#160;&#160;&#160;&#160;&#160;&#160;&#160;&#160;&#160;</text>
<text xml:space="preserve" text-anchor="start" x="252" y="-76.2" font-family="Arial, Helvetica, sans-serif" font-weight="bold" font-size="11.00" fill="#1b5e20">value_3</text>
<text xml:space="preserve" text-anchor="start" x="291.75" y="-76.2" font-family="Arial, Helvetica, sans-serif" font-size="14.00"> &#160;&#160;&#160;&#160;&#160;&#160;&#160;&#160;&#160;&#160;&#160;</text>
<polygon fill="#f0f0f0" stroke="none" points="11.62,-33.75 11.62,-63.75 354.38,-63.75 354.38,-33.75 11.62,-33.75"/>
<polygon fill="none" stroke="black" points="11.62,-33.75 11.62,-63.75 354.38,-63.75 354.38,-33.75 11.62,-33.75"/>
<text xml:space="preserve" text-anchor="start" x="178.5" y="-45.25" font-family="Arial, Helvetica, sans-serif" font-size="10.00" fill="#666666">...</text>
<polygon fill="#ffe0b2" stroke="none" points="11.62,0 11.62,-33.75 174.38,-33.75 174.38,0 11.62,0"/>
<polygon fill="none" stroke="black" points="11.62,0 11.62,-33.75 174.38,-33.75 174.38,0 11.62,0"/>
<text xml:space="preserve" text-anchor="start" x="20.62" y="-12.45" font-family="Arial, Helvetica, sans-serif" font-size="14.00"> &#160;&#160;&#160;&#160;&#160;&#160;&#160;&#160;&#160;&#160;&#160;&#160;&#160;&#160;&#160;</text>
<text xml:space="preserve" text-anchor="start" x="80.62" y="-12.45" font-family="Arial, Helvetica, sans-serif" font-weight="bold" font-size="11.00" fill="#e65100">hash_N</text>
<text xml:space="preserve" text-anchor="start" x="120.38" y="-12.45" font-family="Arial, Helvetica, sans-serif" font-size="14.00"> &#160;&#160;&#160;&#160;&#160;&#160;&#160;&#160;&#160;&#160;&#160;</text>
<polygon fill="#81c784" stroke="none" points="174.38,0 174.38,-33.75 354.38,-33.75 354.38,0 174.38,0"/>
<polygon fill="none" stroke="black" points="174.38,0 174.38,-33.75 354.38,-33.75 354.38,0 174.38,0"/>
<text xml:space="preserve" text-anchor="start" x="190.88" y="-12.45" font-family="Arial, Helvetica, sans-serif" font-size="14.00"> &#160;&#160;&#160;&#160;&#160;&#160;&#160;&#160;&#160;&#160;&#160;&#160;&#160;&#160;&#160;</text>
<text xml:space="preserve" text-anchor="start" x="250.88" y="-12.45" font-family="Arial, Helvetica, sans-serif" font-weight="bold" font-size="11.00" fill="#1b5e20">value_N</text>
<text xml:space="preserve" text-anchor="start" x="292.88" y="-12.45" font-family="Arial, Helvetica, sans-serif" font-size="14.00"> &#160;&#160;&#160;&#160;&#160;&#160;&#160;&#160;&#160;&#160;&#160;</text>
</g>
<!-- zset&#45;&gt;hashmap -->
<g id="edge1" class="edge">
<title>zset:f1&#45;&gt;hashmap:f1</title>
<path fill="none" stroke="#1976d2" stroke-dasharray="5,2" d="M274.82,-427.32C274.82,-427.32 274.82,-159.69 274.82,-159.69"/>
<polygon fill="#1976d2" stroke="#1976d2" points="278.33,-159.69 274.83,-149.69 271.33,-159.69 278.33,-159.69"/>
<text xml:space="preserve" text-anchor="middle" x="19.5" y="-252.7" font-family="Arial, Helvetica, sans-serif" font-size="9.00">same key</text>
</g>
<!-- zset&#45;&gt;hashmap -->
<g id="edge2" class="edge">
<title>zset:f2&#45;&gt;hashmap:f2</title>
<path fill="none" stroke="#1976d2" stroke-dasharray="5,2" d="M77.42,-376.99C77.42,-376.99 77.42,-142.43 77.42,-142.43"/>
<polygon fill="#1976d2" stroke="#1976d2" points="80.93,-142.43 77.43,-132.43 73.93,-142.43 80.93,-142.43"/>
<text xml:space="preserve" text-anchor="middle" x="81.5" y="-252.7" font-family="Arial, Helvetica, sans-serif" font-size="9.00">same key</text>
</g>
<!-- zset&#45;&gt;hashmap -->
<g id="edge3" class="edge">
<title>zset:f3&#45;&gt;hashmap:f3</title>
<path fill="none" stroke="#1976d2" stroke-dasharray="5,2" d="M143.22,-343.24C143.22,-343.24 143.22,-108.68 143.22,-108.68"/>
<polygon fill="#1976d2" stroke="#1976d2" points="146.73,-108.68 143.23,-98.68 139.73,-108.68 146.73,-108.68"/>
<text xml:space="preserve" text-anchor="middle" x="143.5" y="-252.7" font-family="Arial, Helvetica, sans-serif" font-size="9.00">same key</text>
</g>
<!-- zset&#45;&gt;hashmap -->
<g id="edge4" class="edge">
<title>zset:fN&#45;&gt;hashmap:fN</title>
<path fill="none" stroke="#1976d2" stroke-dasharray="5,2" d="M209.03,-296.07C209.03,-296.07 209.03,-28.44 209.03,-28.44"/>
<polygon fill="#1976d2" stroke="#1976d2" points="212.53,-28.44 209.03,-18.44 205.53,-28.44 212.53,-28.44"/>
<text xml:space="preserve" text-anchor="middle" x="205.5" y="-252.7" font-family="Arial, Helvetica, sans-serif" font-size="9.00">same key</text>
</g>
</g>
</svg>
