<?xml version="1.0" encoding="UTF-8" standalone="no"?>
<!DOCTYPE svg PUBLIC "-//W3C//DTD SVG 1.1//EN"
 "http://www.w3.org/Graphics/SVG/1.1/DTD/svg11.dtd">
<!-- Generated by graphviz version 14.1.1 (20251213.1925)
 -->
<!-- Title: LRUEviction Pages: 1 -->
<svg width="1475pt" height="244pt"
 viewBox="0.00 0.00 1475.00 244.00" xmlns="http://www.w3.org/2000/svg" xmlns:xlink="http://www.w3.org/1999/xlink">
<g id="graph0" class="graph" transform="scale(1 1) rotate(0) translate(4 239.88)">
<title>LRUEviction</title>
<!-- step1 -->
<g id="node1" class="node">
<title>step1</title>
<polygon fill="white" stroke="none" points="17.88,-12.25 17.88,-104.5 112.12,-104.5 112.12,-12.25 17.88,-12.25"/>
<polygon fill="#e3f2fd" stroke="none" points="17.88,-74.75 17.88,-104.5 112.12,-104.5 112.12,-74.75 17.88,-74.75"/>
<polyline fill="none" stroke="black" points="17.88,-74.75 112.12,-74.75"/>
<text xml:space="preserve" text-anchor="start" x="24.88" y="-85.2" font-family="Arial, Helvetica, sans-serif" font-weight="bold" font-size="12.00">Step 1</text>
<text xml:space="preserve" text-anchor="start" x="60.88" y="-85.2" font-family="Arial, Helvetica, sans-serif" font-size="14.00">: </text>
<text xml:space="preserve" text-anchor="start" x="68.38" y="-85.2" font-family="Arial, Helvetica, sans-serif" font-size="14.00" fill="#1976d2">put(A)</text>
<polygon fill="none" stroke="black" points="17.88,-12.25 17.88,-74.75 112.12,-74.75 112.12,-12.25 17.88,-12.25"/>
<polygon fill="white" stroke="none" points="24.88,-19.25 24.88,-67.75 105.12,-67.75 105.12,-19.25 24.88,-19.25"/>
<polygon fill="#c8e6c9" stroke="none" points="24.88,-37.75 24.88,-67.75 105.12,-67.75 105.12,-37.75 24.88,-37.75"/>
<polygon fill="none" stroke="black" points="24.88,-37.75 24.88,-67.75 105.12,-67.75 105.12,-37.75 24.88,-37.75"/>
<text xml:space="preserve" text-anchor="start" x="60.88" y="-50.05" font-family="Arial, Helvetica, sans-serif" font-weight="bold" font-size="11.00">A</text>
<polygon fill="white" stroke="none" points="24.88,-19.25 24.88,-37.75 105.12,-37.75 105.12,-19.25 24.88,-19.25"/>
<text xml:space="preserve" text-anchor="start" x="56.75" y="-25.2" font-family="Arial, Helvetica, sans-serif" font-size="9.00" fill="#333333">ts: 1</text>
</g>
<!-- step2 -->
<g id="node2" class="node">
<title>step2</title>
<polygon fill="white" stroke="none" points="191.5,-12.25 191.5,-104.5 325.5,-104.5 325.5,-12.25 191.5,-12.25"/>
<polygon fill="#e3f2fd" stroke="none" points="191.5,-74.75 191.5,-104.5 325.5,-104.5 325.5,-74.75 191.5,-74.75"/>
<polyline fill="none" stroke="black" points="191.5,-74.75 325.5,-74.75"/>
<text xml:space="preserve" text-anchor="start" x="218.38" y="-85.2" font-family="Arial, Helvetica, sans-serif" font-weight="bold" font-size="12.00">Step 2</text>
<text xml:space="preserve" text-anchor="start" x="254.38" y="-85.2" font-family="Arial, Helvetica, sans-serif" font-size="14.00">: </text>
<text xml:space="preserve" text-anchor="start" x="261.88" y="-85.2" font-family="Arial, Helvetica, sans-serif" font-size="14.00" fill="#1976d2">put(B)</text>
<polygon fill="none" stroke="black" points="191.5,-12.25 191.5,-74.75 325.5,-74.75 325.5,-12.25 191.5,-12.25"/>
<polygon fill="white" stroke="none" points="198.5,-19.25 198.5,-67.75 318.5,-67.75 318.5,-19.25 198.5,-19.25"/>
<polygon fill="#c8e6c9" stroke="none" points="198.5,-37.75 198.5,-67.75 258.5,-67.75 258.5,-37.75 198.5,-37.75"/>
<polygon fill="none" stroke="black" points="198.5,-37.75 198.5,-67.75 258.5,-67.75 258.5,-37.75 198.5,-37.75"/>
<text xml:space="preserve" text-anchor="start" x="224.38" y="-50.05" font-family="Arial, Helvetica, sans-serif" font-weight="bold" font-size="11.00">A</text>
<polygon fill="#c8e6c9" stroke="none" points="258.5,-37.75 258.5,-67.75 318.5,-67.75 318.5,-37.75 258.5,-37.75"/>
<polygon fill="none" stroke="black" points="258.5,-37.75 258.5,-67.75 318.5,-67.75 318.5,-37.75 258.5,-37.75"/>
<text xml:space="preserve" text-anchor="start" x="284.38" y="-50.05" font-family="Arial, Helvetica, sans-serif" font-weight="bold" font-size="11.00">B</text>
<polygon fill="white" stroke="none" points="198.5,-19.25 198.5,-37.75 258.5,-37.75 258.5,-19.25 198.5,-19.25"/>
<text xml:space="preserve" text-anchor="start" x="220.25" y="-25.2" font-family="Arial, Helvetica, sans-serif" font-size="9.00" fill="#333333">ts: 1</text>
<polygon fill="white" stroke="none" points="258.5,-19.25 258.5,-37.75 318.5,-37.75 318.5,-19.25 258.5,-19.25"/>
<text xml:space="preserve" text-anchor="start" x="280.25" y="-25.2" font-family="Arial, Helvetica, sans-serif" font-size="9.00" fill="#333333">ts: 2</text>
</g>
<!-- step1&#45;&gt;step2 -->
<g id="edge1" class="edge">
<title>step1&#45;&gt;step2</title>
<path fill="none" stroke="black" stroke-width="1.5" d="M111.87,-58.38C132.13,-58.38 156.52,-58.38 179.5,-58.38"/>
<polygon fill="black" stroke="black" stroke-width="1.5" points="179.45,-61.88 189.45,-58.38 179.45,-54.88 179.45,-61.88"/>
<text xml:space="preserve" text-anchor="middle" x="160.75" y="-60.88" font-family="Arial, Helvetica, sans-serif" font-size="10.00">add B</text>
</g>
<!-- step3 -->
<g id="node3" class="node">
<title>step3</title>
<polygon fill="white" stroke="none" points="387.75,0 387.75,-116.75 581.75,-116.75 581.75,0 387.75,0"/>
<polygon fill="#fff3e0" stroke="none" points="387.75,-87 387.75,-116.75 581.75,-116.75 581.75,-87 387.75,-87"/>
<polyline fill="none" stroke="black" points="387.75,-87 581.75,-87"/>
<text xml:space="preserve" text-anchor="start" x="399.25" y="-97.45" font-family="Arial, Helvetica, sans-serif" font-weight="bold" font-size="12.00">Step 3</text>
<text xml:space="preserve" text-anchor="start" x="435.25" y="-97.45" font-family="Arial, Helvetica, sans-serif" font-size="14.00">: </text>
<text xml:space="preserve" text-anchor="start" x="442.75" y="-97.45" font-family="Arial, Helvetica, sans-serif" font-size="14.00" fill="#e65100">put(C) — Cache Full!</text>
<polygon fill="none" stroke="black" points="387.75,-24.5 387.75,-87 581.75,-87 581.75,-24.5 387.75,-24.5"/>
<polygon fill="white" stroke="none" points="394.75,-31.5 394.75,-80 574.75,-80 574.75,-31.5 394.75,-31.5"/>
<polygon fill="#c8e6c9" stroke="none" points="394.75,-50 394.75,-80 454.75,-80 454.75,-50 394.75,-50"/>
<polygon fill="none" stroke="black" points="394.75,-50 394.75,-80 454.75,-80 454.75,-50 394.75,-50"/>
<text xml:space="preserve" text-anchor="start" x="420.62" y="-62.3" font-family="Arial, Helvetica, sans-serif" font-weight="bold" font-size="11.00">A</text>
<polygon fill="#c8e6c9" stroke="none" points="454.75,-50 454.75,-80 514.75,-80 514.75,-50 454.75,-50"/>
<polygon fill="none" stroke="black" points="454.75,-50 454.75,-80 514.75,-80 514.75,-50 454.75,-50"/>
<text xml:space="preserve" text-anchor="start" x="480.62" y="-62.3" font-family="Arial, Helvetica, sans-serif" font-weight="bold" font-size="11.00">B</text>
<polygon fill="#c8e6c9" stroke="none" points="514.75,-50 514.75,-80 574.75,-80 574.75,-50 514.75,-50"/>
<polygon fill="none" stroke="black" points="514.75,-50 514.75,-80 574.75,-80 574.75,-50 514.75,-50"/>
<text xml:space="preserve" text-anchor="start" x="540.62" y="-62.3" font-family="Arial, Helvetica, sans-serif" font-weight="bold" font-size="11.00">C</text>
<polygon fill="white" stroke="none" points="394.75,-31.5 394.75,-50 454.75,-50 454.75,-31.5 394.75,-31.5"/>
<text xml:space="preserve" text-anchor="start" x="416.5" y="-37.45" font-family="Arial, Helvetica, sans-serif" font-size="9.00" fill="#333333">ts: 1</text>
<polygon fill="white" stroke="none" points="454.75,-31.5 454.75,-50 514.75,-50 514.75,-31.5 454.75,-31.5"/>
<text xml:space="preserve" text-anchor="start" x="476.5" y="-37.45" font-family="Arial, Helvetica, sans-serif" font-size="9.00" fill="#333333">ts: 2</text>
<polygon fill="white" stroke="none" points="514.75,-31.5 514.75,-50 574.75,-50 574.75,-31.5 514.75,-31.5"/>
<text xml:space="preserve" text-anchor="start" x="536.5" y="-37.45" font-family="Arial, Helvetica, sans-serif" font-size="9.00" fill="#333333">ts: 3</text>
<polygon fill="#fff3e0" stroke="none" points="387.75,0 387.75,-24.5 581.75,-24.5 581.75,0 387.75,0"/>
<polygon fill="none" stroke="black" points="387.75,0 387.75,-24.5 581.75,-24.5 581.75,0 387.75,0"/>
<text xml:space="preserve" text-anchor="start" x="444.62" y="-9.95" font-family="Arial, Helvetica, sans-serif" font-style="italic" font-size="9.00" fill="#333333">maxsize=3 reached</text>
</g>
<!-- step2&#45;&gt;step3 -->
<g id="edge2" class="edge">
<title>step2&#45;&gt;step3</title>
<path fill="none" stroke="black" stroke-width="1.5" d="M325.27,-58.38C341.15,-58.38 358.54,-58.38 375.8,-58.38"/>
<polygon fill="black" stroke="black" stroke-width="1.5" points="375.74,-61.88 385.74,-58.38 375.74,-54.88 375.74,-61.88"/>
<text xml:space="preserve" text-anchor="middle" x="356.62" y="-60.88" font-family="Arial, Helvetica, sans-serif" font-size="10.00">add C</text>
</g>
<!-- step4 -->
<g id="node4" class="node">
<title>step4</title>
<polygon fill="white" stroke="none" points="644,0 644,-116.75 898,-116.75 898,0 644,0"/>
<polygon fill="#ffebee" stroke="none" points="644,-87 644,-116.75 898,-116.75 898,-87 644,-87"/>
<polyline fill="none" stroke="black" points="644,-87 898,-87"/>
<text xml:space="preserve" text-anchor="start" x="697.12" y="-97.45" font-family="Arial, Helvetica, sans-serif" font-weight="bold" font-size="12.00">Step 4</text>
<text xml:space="preserve" text-anchor="start" x="733.12" y="-97.45" font-family="Arial, Helvetica, sans-serif" font-size="14.00">: </text>
<text xml:space="preserve" text-anchor="start" x="740.62" y="-97.45" font-family="Arial, Helvetica, sans-serif" font-size="14.00" fill="#c62828">put(D) — Evict A!</text>
<polygon fill="none" stroke="black" points="644,-24.5 644,-87 898,-87 898,-24.5 644,-24.5"/>
<polygon fill="white" stroke="none" points="651,-31.5 651,-80 891,-80 891,-31.5 651,-31.5"/>
<polygon fill="#ffcdd2" stroke="none" points="651,-50 651,-80 711,-80 711,-50 651,-50"/>
<polygon fill="none" stroke="black" points="651,-50 651,-80 711,-80 711,-50 651,-50"/>
<text xml:space="preserve" text-anchor="start" x="676.88" y="-62.3" font-family="Arial, Helvetica, sans-serif" font-weight="bold" text-decoration="line-through" font-size="11.00" fill="#c62828">A</text>
<polygon fill="#c8e6c9" stroke="none" points="711,-50 711,-80 771,-80 771,-50 711,-50"/>
<polygon fill="none" stroke="black" points="711,-50 711,-80 771,-80 771,-50 711,-50"/>
<text xml:space="preserve" text-anchor="start" x="736.88" y="-62.3" font-family="Arial, Helvetica, sans-serif" font-weight="bold" font-size="11.00">B</text>
<polygon fill="#c8e6c9" stroke="none" points="771,-50 771,-80 831,-80 831,-50 771,-50"/>
<polygon fill="none" stroke="black" points="771,-50 771,-80 831,-80 831,-50 771,-50"/>
<text xml:space="preserve" text-anchor="start" x="796.88" y="-62.3" font-family="Arial, Helvetica, sans-serif" font-weight="bold" font-size="11.00">C</text>
<polygon fill="#81c784" stroke="none" points="831,-50 831,-80 891,-80 891,-50 831,-50"/>
<polygon fill="none" stroke="black" points="831,-50 831,-80 891,-80 891,-50 831,-50"/>
<text xml:space="preserve" text-anchor="start" x="856.88" y="-62.3" font-family="Arial, Helvetica, sans-serif" font-weight="bold" font-size="11.00">D</text>
<polygon fill="#ffcdd2" stroke="none" points="651,-31.5 651,-50 711,-50 711,-31.5 651,-31.5"/>
<text xml:space="preserve" text-anchor="start" x="665.25" y="-37.45" font-family="Arial, Helvetica, sans-serif" font-size="9.00" fill="#c62828">evicted!</text>
<polygon fill="white" stroke="none" points="711,-31.5 711,-50 771,-50 771,-31.5 711,-31.5"/>
<text xml:space="preserve" text-anchor="start" x="732.75" y="-37.45" font-family="Arial, Helvetica, sans-serif" font-size="9.00" fill="#333333">ts: 2</text>
<polygon fill="white" stroke="none" points="771,-31.5 771,-50 831,-50 831,-31.5 771,-31.5"/>
<text xml:space="preserve" text-anchor="start" x="792.75" y="-37.45" font-family="Arial, Helvetica, sans-serif" font-size="9.00" fill="#333333">ts: 3</text>
<polygon fill="#81c784" stroke="none" points="831,-31.5 831,-50 891,-50 891,-31.5 831,-31.5"/>
<text xml:space="preserve" text-anchor="start" x="852.75" y="-37.45" font-family="Arial, Helvetica, sans-serif" font-size="9.00" fill="#1b5e20">ts: 4</text>
<polygon fill="#ffebee" stroke="none" points="644,0 644,-24.5 898,-24.5 898,0 644,0"/>
<polygon fill="none" stroke="black" points="644,0 644,-24.5 898,-24.5 898,0 644,0"/>
<text xml:space="preserve" text-anchor="start" x="722.25" y="-9.95" font-family="Arial, Helvetica, sans-serif" font-weight="bold" font-size="9.00" fill="#333333">A</text>
<text xml:space="preserve" text-anchor="start" x="729" y="-9.95" font-family="Arial, Helvetica, sans-serif" font-size="9.00" fill="#333333"> removed (oldest ts=</text>
<text xml:space="preserve" text-anchor="start" x="811.5" y="-9.95" font-family="Arial, Helvetica, sans-serif" font-weight="bold" font-size="9.00" fill="#333333">1</text>
<text xml:space="preserve" text-anchor="start" x="816.75" y="-9.95" font-family="Arial, Helvetica, sans-serif" font-size="9.00" fill="#333333">)</text>
</g>
<!-- step3&#45;&gt;step4 -->
<g id="edge3" class="edge">
<title>step3&#45;&gt;step4</title>
<path fill="none" stroke="#c62828" stroke-width="2" d="M581.59,-58.38C597.58,-58.38 614.45,-58.38 631.25,-58.38"/>
<polygon fill="#c62828" stroke="#c62828" stroke-width="2" points="631.05,-61.88 641.05,-58.38 631.05,-54.88 631.05,-61.88"/>
<text xml:space="preserve" text-anchor="middle" x="612.88" y="-72.88" font-family="Arial, Helvetica, sans-serif" font-size="10.00">add D</text>
<text xml:space="preserve" text-anchor="middle" x="612.88" y="-60.88" font-family="Arial, Helvetica, sans-serif" font-size="10.00">(full!)</text>
</g>
<!-- step5 -->
<g id="node5" class="node">
<title>step5</title>
<polygon fill="white" stroke="none" points="957.25,0 957.25,-116.75 1151.25,-116.75 1151.25,0 957.25,0"/>
<polygon fill="#e3f2fd" stroke="none" points="957.25,-87 957.25,-116.75 1151.25,-116.75 1151.25,-87 957.25,-87"/>
<polyline fill="none" stroke="black" points="957.25,-87 1151.25,-87"/>
<text xml:space="preserve" text-anchor="start" x="971.75" y="-97.45" font-family="Arial, Helvetica, sans-serif" font-weight="bold" font-size="12.00">Step 5</text>
<text xml:space="preserve" text-anchor="start" x="1007.75" y="-97.45" font-family="Arial, Helvetica, sans-serif" font-size="14.00">: </text>
<text xml:space="preserve" text-anchor="start" x="1015.25" y="-97.45" font-family="Arial, Helvetica, sans-serif" font-size="14.00" fill="#1976d2">get(B) — Cache Hit!</text>
<polygon fill="none" stroke="black" points="957.25,-24.5 957.25,-87 1151.25,-87 1151.25,-24.5 957.25,-24.5"/>
<polygon fill="white" stroke="none" points="964.25,-31.5 964.25,-80 1144.25,-80 1144.25,-31.5 964.25,-31.5"/>
<polygon fill="#c8e6c9" stroke="none" points="964.25,-50 964.25,-80 1024.25,-80 1024.25,-50 964.25,-50"/>
<polygon fill="none" stroke="black" points="964.25,-50 964.25,-80 1024.25,-80 1024.25,-50 964.25,-50"/>
<text xml:space="preserve" text-anchor="start" x="990.12" y="-62.3" font-family="Arial, Helvetica, sans-serif" font-weight="bold" font-size="11.00">C</text>
<polygon fill="#bbdefb" stroke="none" points="1024.25,-50 1024.25,-80 1084.25,-80 1084.25,-50 1024.25,-50"/>
<polygon fill="none" stroke="black" points="1024.25,-50 1024.25,-80 1084.25,-80 1084.25,-50 1024.25,-50"/>
<text xml:space="preserve" text-anchor="start" x="1050.12" y="-62.3" font-family="Arial, Helvetica, sans-serif" font-weight="bold" font-size="11.00">B</text>
<polygon fill="#c8e6c9" stroke="none" points="1084.25,-50 1084.25,-80 1144.25,-80 1144.25,-50 1084.25,-50"/>
<polygon fill="none" stroke="black" points="1084.25,-50 1084.25,-80 1144.25,-80 1144.25,-50 1084.25,-50"/>
<text xml:space="preserve" text-anchor="start" x="1110.12" y="-62.3" font-family="Arial, Helvetica, sans-serif" font-weight="bold" font-size="11.00">D</text>
<polygon fill="white" stroke="none" points="964.25,-31.5 964.25,-50 1024.25,-50 1024.25,-31.5 964.25,-31.5"/>
<text xml:space="preserve" text-anchor="start" x="986" y="-37.45" font-family="Arial, Helvetica, sans-serif" font-size="9.00" fill="#333333">ts: 3</text>
<polygon fill="#bbdefb" stroke="none" points="1024.25,-31.5 1024.25,-50 1084.25,-50 1084.25,-31.5 1024.25,-31.5"/>
<text xml:space="preserve" text-anchor="start" x="1042.62" y="-37.45" font-family="Arial, Helvetica, sans-serif" font-size="9.00" fill="#1565c0">ts: 5 ↑</text>
<polygon fill="white" stroke="none" points="1084.25,-31.5 1084.25,-50 1144.25,-50 1144.25,-31.5 1084.25,-31.5"/>
<text xml:space="preserve" text-anchor="start" x="1106" y="-37.45" font-family="Arial, Helvetica, sans-serif" font-size="9.00" fill="#333333">ts: 4</text>
<polygon fill="#e3f2fd" stroke="none" points="957.25,0 957.25,-24.5 1151.25,-24.5 1151.25,0 957.25,0"/>
<polygon fill="none" stroke="black" points="957.25,0 957.25,-24.5 1151.25,-24.5 1151.25,0 957.25,0"/>
<text xml:space="preserve" text-anchor="start" x="999.5" y="-9.95" font-family="Arial, Helvetica, sans-serif" font-style="italic" font-size="9.00" fill="#333333">B&#39;s timestamp updated to 5</text>
</g>
<!-- step4&#45;&gt;step5 -->
<g id="edge4" class="edge">
<title>step4&#45;&gt;step5</title>
<path fill="none" stroke="#1976d2" stroke-width="1.5" d="M897.82,-58.38C913.79,-58.38 930.01,-58.38 945.66,-58.38"/>
<polygon fill="#1976d2" stroke="#1976d2" stroke-width="1.5" points="945.22,-61.88 955.22,-58.38 945.22,-54.88 945.22,-61.88"/>
<text xml:space="preserve" text-anchor="middle" x="927.62" y="-72.88" font-family="Arial, Helvetica, sans-serif" font-size="10.00">get B</text>
<text xml:space="preserve" text-anchor="middle" x="927.62" y="-60.88" font-family="Arial, Helvetica, sans-serif" font-size="10.00">(hit)</text>
</g>
<!-- step6 -->
<g id="node6" class="node">
<title>step6</title>
<polygon fill="white" stroke="none" points="1212.75,0 1212.75,-116.75 1466.75,-116.75 1466.75,0 1212.75,0"/>
<polygon fill="#ffebee" stroke="none" points="1212.75,-87 1212.75,-116.75 1466.75,-116.75 1466.75,-87 1212.75,-87"/>
<polyline fill="none" stroke="black" points="1212.75,-87 1466.75,-87"/>
<text xml:space="preserve" text-anchor="start" x="1265.5" y="-97.45" font-family="Arial, Helvetica, sans-serif" font-weight="bold" font-size="12.00">Step 6</text>
<text xml:space="preserve" text-anchor="start" x="1301.5" y="-97.45" font-family="Arial, Helvetica, sans-serif" font-size="14.00">: </text>
<text xml:space="preserve" text-anchor="start" x="1309" y="-97.45" font-family="Arial, Helvetica, sans-serif" font-size="14.00" fill="#c62828">put(E) — Evict C!</text>
<polygon fill="none" stroke="black" points="1212.75,-24.5 1212.75,-87 1466.75,-87 1466.75,-24.5 1212.75,-24.5"/>
<polygon fill="white" stroke="none" points="1219.75,-31.5 1219.75,-80 1459.75,-80 1459.75,-31.5 1219.75,-31.5"/>
<polygon fill="#ffcdd2" stroke="none" points="1219.75,-50 1219.75,-80 1279.75,-80 1279.75,-50 1219.75,-50"/>
<polygon fill="none" stroke="black" points="1219.75,-50 1219.75,-80 1279.75,-80 1279.75,-50 1219.75,-50"/>
<text xml:space="preserve" text-anchor="start" x="1245.62" y="-62.3" font-family="Arial, Helvetica, sans-serif" font-weight="bold" text-decoration="line-through" font-size="11.00" fill="#c62828">C</text>
<polygon fill="#bbdefb" stroke="none" points="1279.75,-50 1279.75,-80 1339.75,-80 1339.75,-50 1279.75,-50"/>
<polygon fill="none" stroke="black" points="1279.75,-50 1279.75,-80 1339.75,-80 1339.75,-50 1279.75,-50"/>
<text xml:space="preserve" text-anchor="start" x="1305.62" y="-62.3" font-family="Arial, Helvetica, sans-serif" font-weight="bold" font-size="11.00">B</text>
<polygon fill="#c8e6c9" stroke="none" points="1339.75,-50 1339.75,-80 1399.75,-80 1399.75,-50 1339.75,-50"/>
<polygon fill="none" stroke="black" points="1339.75,-50 1339.75,-80 1399.75,-80 1399.75,-50 1339.75,-50"/>
<text xml:space="preserve" text-anchor="start" x="1365.62" y="-62.3" font-family="Arial, Helvetica, sans-serif" font-weight="bold" font-size="11.00">D</text>
<polygon fill="#81c784" stroke="none" points="1399.75,-50 1399.75,-80 1459.75,-80 1459.75,-50 1399.75,-50"/>
<polygon fill="none" stroke="black" points="1399.75,-50 1399.75,-80 1459.75,-80 1459.75,-50 1399.75,-50"/>
<text xml:space="preserve" text-anchor="start" x="1426" y="-62.3" font-family="Arial, Helvetica, sans-serif" font-weight="bold" font-size="11.00">E</text>
<polygon fill="#ffcdd2" stroke="none" points="1219.75,-31.5 1219.75,-50 1279.75,-50 1279.75,-31.5 1219.75,-31.5"/>
<text xml:space="preserve" text-anchor="start" x="1234" y="-37.45" font-family="Arial, Helvetica, sans-serif" font-size="9.00" fill="#c62828">evicted!</text>
<polygon fill="#bbdefb" stroke="none" points="1279.75,-31.5 1279.75,-50 1339.75,-50 1339.75,-31.5 1279.75,-31.5"/>
<text xml:space="preserve" text-anchor="start" x="1301.5" y="-37.45" font-family="Arial, Helvetica, sans-serif" font-size="9.00" fill="#1565c0">ts: 5</text>
<polygon fill="white" stroke="none" points="1339.75,-31.5 1339.75,-50 1399.75,-50 1399.75,-31.5 1339.75,-31.5"/>
<text xml:space="preserve" text-anchor="start" x="1361.5" y="-37.45" font-family="Arial, Helvetica, sans-serif" font-size="9.00" fill="#333333">ts: 4</text>
<polygon fill="#81c784" stroke="none" points="1399.75,-31.5 1399.75,-50 1459.75,-50 1459.75,-31.5 1399.75,-31.5"/>
<text xml:space="preserve" text-anchor="start" x="1421.5" y="-37.45" font-family="Arial, Helvetica, sans-serif" font-size="9.00" fill="#1b5e20">ts: 6</text>
<polygon fill="#ffebee" stroke="none" points="1212.75,0 1212.75,-24.5 1466.75,-24.5 1466.75,0 1212.75,0"/>
<polygon fill="none" stroke="black" points="1212.75,0 1212.75,-24.5 1466.75,-24.5 1466.75,0 1212.75,0"/>
<text xml:space="preserve" text-anchor="start" x="1291" y="-9.95" font-family="Arial, Helvetica, sans-serif" font-weight="bold" font-size="9.00" fill="#333333">C</text>
<text xml:space="preserve" text-anchor="start" x="1297.75" y="-9.95" font-family="Arial, Helvetica, sans-serif" font-size="9.00" fill="#333333"> removed (oldest ts=</text>
<text xml:space="preserve" text-anchor="start" x="1380.25" y="-9.95" font-family="Arial, Helvetica, sans-serif" font-weight="bold" font-size="9.00" fill="#333333">3</text>
<text xml:space="preserve" text-anchor="start" x="1385.5" y="-9.95" font-family="Arial, Helvetica, sans-serif" font-size="9.00" fill="#333333">)</text>
</g>
<!-- step5&#45;&gt;step6 -->
<g id="edge5" class="edge">
<title>step5&#45;&gt;step6</title>
<path fill="none" stroke="#c62828" stroke-width="2" d="M1151.23,-58.38C1167.04,-58.38 1183.7,-58.38 1200.3,-58.38"/>
<polygon fill="#c62828" stroke="#c62828" stroke-width="2" points="1199.94,-61.88 1209.94,-58.38 1199.94,-54.88 1199.94,-61.88"/>
<text xml:space="preserve" text-anchor="middle" x="1182" y="-72.88" font-family="Arial, Helvetica, sans-serif" font-size="10.00">add E</text>
<text xml:space="preserve" text-anchor="middle" x="1182" y="-60.88" font-family="Arial, Helvetica, sans-serif" font-size="10.00">(full!)</text>
</g>
<!-- legend -->
<g id="node7" class="node">
<title>legend</title>
<polygon fill="white" stroke="none" points="0,-122.88 0,-235.88 130,-235.88 130,-122.88 0,-122.88"/>
<polygon fill="#e3f2fd" stroke="none" points="1,-216.38 1,-234.88 111.38,-234.88 111.38,-216.38 1,-216.38"/>
<text xml:space="preserve" text-anchor="start" x="5" y="-223.32" font-family="Arial, Helvetica, sans-serif" font-weight="bold" font-size="9.00" fill="#333333">Legend:</text>
<polygon fill="white" stroke="none" points="1,-197.88 1,-216.38 111.38,-216.38 111.38,-197.88 1,-197.88"/>
<text xml:space="preserve" text-anchor="start" x="26.56" y="-204.82" font-family="Arial, Helvetica, sans-serif" font-size="9.00" fill="#2e7d32">■</text>
<text xml:space="preserve" text-anchor="start" x="31.81" y="-204.82" font-family="Arial, Helvetica, sans-serif" font-size="9.00"> </text>
<text xml:space="preserve" text-anchor="start" x="34.06" y="-204.82" font-family="Arial, Helvetica, sans-serif" font-size="9.00" fill="#333333">Cached item</text>
<polygon fill="white" stroke="none" points="1,-179.38 1,-197.88 111.38,-197.88 111.38,-179.38 1,-179.38"/>
<text xml:space="preserve" text-anchor="start" x="27.69" y="-186.32" font-family="Arial, Helvetica, sans-serif" font-size="9.00" fill="#c62828">■</text>
<text xml:space="preserve" text-anchor="start" x="32.94" y="-186.32" font-family="Arial, Helvetica, sans-serif" font-size="9.00"> </text>
<text xml:space="preserve" text-anchor="start" x="35.19" y="-186.32" font-family="Arial, Helvetica, sans-serif" font-size="9.00" fill="#333333">Evicted item</text>
<polygon fill="white" stroke="none" points="1,-160.88 1,-179.38 111.38,-179.38 111.38,-160.88 1,-160.88"/>
<text xml:space="preserve" text-anchor="start" x="13.81" y="-167.82" font-family="Arial, Helvetica, sans-serif" font-size="9.00" fill="#1976d2">■</text>
<text xml:space="preserve" text-anchor="start" x="19.06" y="-167.82" font-family="Arial, Helvetica, sans-serif" font-size="9.00"> </text>
<text xml:space="preserve" text-anchor="start" x="21.31" y="-167.82" font-family="Arial, Helvetica, sans-serif" font-size="9.00" fill="#333333">Recently accessed</text>
<polygon fill="white" stroke="none" points="1,-142.38 1,-160.88 111.38,-160.88 111.38,-142.38 1,-142.38"/>
<text xml:space="preserve" text-anchor="start" x="25.44" y="-149.32" font-family="Arial, Helvetica, sans-serif" font-size="9.00" fill="#1b5e20">■</text>
<text xml:space="preserve" text-anchor="start" x="30.69" y="-149.32" font-family="Arial, Helvetica, sans-serif" font-size="9.00"> </text>
<text xml:space="preserve" text-anchor="start" x="32.94" y="-149.32" font-family="Arial, Helvetica, sans-serif" font-size="9.00" fill="#333333">Newly added</text>
<polygon fill="white" stroke="none" points="1,-123.88 1,-142.38 129,-142.38 129,-123.88 1,-123.88"/>
<text xml:space="preserve" text-anchor="start" x="5" y="-130.82" font-family="Arial, Helvetica, sans-serif" font-style="italic" font-size="9.00" fill="#333333">ts = timestamp (lower = older)</text>
<polygon fill="none" stroke="black" points="0,-122.88 0,-235.88 130,-235.88 130,-122.88 0,-122.88"/>
</g>
</g>
</svg>
