<?xml version="1.0" encoding="UTF-8" standalone="no"?>
<!DOCTYPE svg PUBLIC "-//W3C//DTD SVG 1.1//EN"
 "http://www.w3.org/Graphics/SVG/1.1/DTD/svg11.dtd">
<!-- Generated by graphviz version 2.43.0 (0)
 -->
<!-- Title: data_structure Pages: 1 -->
<svg width="738pt" height="78pt"
 viewBox="0.00 0.00 738.00 78.00" xmlns="http://www.w3.org/2000/svg" xmlns:xlink="http://www.w3.org/1999/xlink">
<g id="graph0" class="graph" transform="scale(1 1) rotate(0) translate(4 74)">
<title>data_structure</title>
<polygon fill="white" stroke="transparent" points="-4,4 -4,-74 734,-74 734,4 -4,4"/>
<!-- 0 -->
<g id="node1" class="node">
<title>0</title>
<polygon fill="none" stroke="black" points="0,-17 0,-53 54,-53 54,-17 0,-17"/>
<text text-anchor="middle" x="27" y="-31.3" font-family="Times,serif" font-size="14.00"> </text>
</g>
<!-- 1 -->
<g id="node2" class="node">
<title>1</title>
<polygon fill="none" stroke="black" points="135,-17 135,-53 189,-53 189,-17 135,-17"/>
<text text-anchor="middle" x="162" y="-31.3" font-family="Times,serif" font-size="14.00">*A:1</text>
</g>
<!-- 0&#45;&gt;1 -->
<g id="edge1" class="edge">
<title>0&#45;&gt;1</title>
<path fill="none" stroke="black" d="M54.28,-35C74.41,-35 102.41,-35 124.68,-35"/>
<polygon fill="black" stroke="black" points="124.78,-38.5 134.78,-35 124.78,-31.5 124.78,-38.5"/>
<text text-anchor="middle" x="94.5" y="-38.8" font-family="Times,serif" font-size="14.00">1. put A</text>
</g>
<!-- 2 -->
<g id="node3" class="node">
<title>2</title>
<polygon fill="none" stroke="black" points="270,-12 270,-58 324,-58 324,-12 270,-12"/>
<text text-anchor="middle" x="297" y="-42.8" font-family="Times,serif" font-size="14.00">A:1</text>
<polyline fill="none" stroke="black" points="270,-35 324,-35 "/>
<text text-anchor="middle" x="297" y="-19.8" font-family="Times,serif" font-size="14.00">*B:2</text>
</g>
<!-- 1&#45;&gt;2 -->
<g id="edge2" class="edge">
<title>1&#45;&gt;2</title>
<path fill="none" stroke="black" d="M189.28,-35C209.41,-35 237.41,-35 259.68,-35"/>
<polygon fill="black" stroke="black" points="259.78,-38.5 269.78,-35 259.78,-31.5 259.78,-38.5"/>
<text text-anchor="middle" x="229.5" y="-38.8" font-family="Times,serif" font-size="14.00">2. put B</text>
</g>
<!-- 3 -->
<g id="node4" class="node">
<title>3</title>
<polygon fill="none" stroke="black" points="405,-0.5 405,-69.5 459,-69.5 459,-0.5 405,-0.5"/>
<text text-anchor="middle" x="432" y="-54.3" font-family="Times,serif" font-size="14.00">A:1</text>
<polyline fill="none" stroke="black" points="405,-46.5 459,-46.5 "/>
<text text-anchor="middle" x="432" y="-31.3" font-family="Times,serif" font-size="14.00">B:2</text>
<polyline fill="none" stroke="black" points="405,-23.5 459,-23.5 "/>
<text text-anchor="middle" x="432" y="-8.3" font-family="Times,serif" font-size="14.00">*C:3</text>
</g>
<!-- 2&#45;&gt;3 -->
<g id="edge3" class="edge">
<title>2&#45;&gt;3</title>
<path fill="none" stroke="black" d="M324.28,-35C344.41,-35 372.41,-35 394.68,-35"/>
<polygon fill="black" stroke="black" points="394.78,-38.5 404.78,-35 394.78,-31.5 394.78,-38.5"/>
<text text-anchor="middle" x="364.5" y="-38.8" font-family="Times,serif" font-size="14.00">3. put C</text>
</g>
<!-- 4 -->
<g id="node5" class="node">
<title>4</title>
<polygon fill="none" stroke="black" points="541,-0.5 541,-69.5 595,-69.5 595,-0.5 541,-0.5"/>
<text text-anchor="middle" x="568" y="-54.3" font-family="Times,serif" font-size="14.00">*D:4</text>
<polyline fill="none" stroke="black" points="541,-46.5 595,-46.5 "/>
<text text-anchor="middle" x="568" y="-31.3" font-family="Times,serif" font-size="14.00">B:2</text>
<polyline fill="none" stroke="black" points="541,-23.5 595,-23.5 "/>
<text text-anchor="middle" x="568" y="-8.3" font-family="Times,serif" font-size="14.00">C:3</text>
</g>
<!-- 3&#45;&gt;4 -->
<g id="edge4" class="edge">
<title>3&#45;&gt;4</title>
<path fill="none" stroke="black" d="M459.15,-35C479.54,-35 508.08,-35 530.68,-35"/>
<polygon fill="black" stroke="black" points="530.91,-38.5 540.91,-35 530.91,-31.5 530.91,-38.5"/>
<text text-anchor="middle" x="500" y="-38.8" font-family="Times,serif" font-size="14.00">4. put D</text>
</g>
<!-- 5 -->
<g id="node6" class="node">
<title>5</title>
<polygon fill="none" stroke="black" points="676,-0.5 676,-69.5 730,-69.5 730,-0.5 676,-0.5"/>
<text text-anchor="middle" x="703" y="-54.3" font-family="Times,serif" font-size="14.00">D:4</text>
<polyline fill="none" stroke="black" points="676,-46.5 730,-46.5 "/>
<text text-anchor="middle" x="703" y="-31.3" font-family="Times,serif" font-size="14.00">B:2</text>
<polyline fill="none" stroke="black" points="676,-23.5 730,-23.5 "/>
<text text-anchor="middle" x="703" y="-8.3" font-family="Times,serif" font-size="14.00">*C:5</text>
</g>
<!-- 4&#45;&gt;5 -->
<g id="edge5" class="edge">
<title>4&#45;&gt;5</title>
<path fill="none" stroke="black" d="M595.28,-35C615.41,-35 643.41,-35 665.68,-35"/>
<polygon fill="black" stroke="black" points="665.78,-38.5 675.78,-35 665.78,-31.5 665.78,-38.5"/>
<text text-anchor="middle" x="635.5" y="-38.8" font-family="Times,serif" font-size="14.00">5. put C</text>
</g>
</g>
</svg>
