<?xml version="1.0" encoding="UTF-8" standalone="no"?>
<!DOCTYPE svg PUBLIC "-//W3C//DTD SVG 1.1//EN"
 "http://www.w3.org/Graphics/SVG/1.1/DTD/svg11.dtd">
<!-- Generated by graphviz version 16.1.0 (20260904.0139)
 -->
<!-- Title: LRUEviction Pages: 1 -->
<svg width="474pt" height="631pt"
 viewBox="0.00 0.00 474.00 631.00" xmlns="http://www.w3.org/2000/svg" xmlns:xlink="http://www.w3.org/1999/xlink">
<g id="graph0" class="graph" transform="scale(1 1) rotate(0) translate(4 626.5)">
<title>LRUEviction</title>
<!-- step1 -->
<g id="node1" class="node">
<title>step1</title>
<polygon fill="#e3f2fd" stroke="none" points="49.88,-580.5 49.88,-610.25 144.12,-610.25 144.12,-580.5 49.88,-580.5"/>
<polyline fill="none" stroke="black" points="49.88,-580.5 144.12,-580.5"/>
<text xml:space="preserve" text-anchor="start" x="56.88" y="-590.95" font-family="Arial, Helvetica, sans-serif" font-weight="bold" font-size="12.00">Step 1</text>
<text xml:space="preserve" text-anchor="start" x="92.88" y="-590.95" font-family="Arial, Helvetica, sans-serif" font-size="14.00">: </text>
<text xml:space="preserve" text-anchor="start" x="100.38" y="-590.95" font-family="Arial, Helvetica, sans-serif" font-size="14.00" fill="#1976d2">put(A)</text>
<polygon fill="none" stroke="black" points="49.88,-517.25 49.88,-580.5 144.12,-580.5 144.12,-517.25 49.88,-517.25"/>
<polygon fill="#c8e6c9" stroke="none" points="56.88,-543.5 56.88,-573.5 137.12,-573.5 137.12,-543.5 56.88,-543.5"/>
<polygon fill="none" stroke="black" points="56.88,-543.5 56.88,-573.5 137.12,-573.5 137.12,-543.5 56.88,-543.5"/>
<text xml:space="preserve" text-anchor="start" x="92.88" y="-555.8" font-family="Arial, Helvetica, sans-serif" font-weight="bold" font-size="11.00">A</text>
<polygon fill="#f5f5f5" stroke="none" points="56.88,-524.25 56.88,-543.5 137.12,-543.5 137.12,-524.25 56.88,-524.25"/>
<text xml:space="preserve" text-anchor="start" x="83.88" y="-530.5" font-family="monospace" font-size="9.00" fill="#333333">ts: 1</text>
</g>
<!-- step2 -->
<g id="node2" class="node">
<title>step2</title>
<polygon fill="#e3f2fd" stroke="none" points="30,-403 30,-432.75 164,-432.75 164,-403 30,-403"/>
<polyline fill="none" stroke="black" points="30,-403 164,-403"/>
<text xml:space="preserve" text-anchor="start" x="56.88" y="-413.45" font-family="Arial, Helvetica, sans-serif" font-weight="bold" font-size="12.00">Step 2</text>
<text xml:space="preserve" text-anchor="start" x="92.88" y="-413.45" font-family="Arial, Helvetica, sans-serif" font-size="14.00">: </text>
<text xml:space="preserve" text-anchor="start" x="100.38" y="-413.45" font-family="Arial, Helvetica, sans-serif" font-size="14.00" fill="#1976d2">put(B)</text>
<polygon fill="none" stroke="black" points="30,-339.75 30,-403 164,-403 164,-339.75 30,-339.75"/>
<polygon fill="#c8e6c9" stroke="none" points="37,-366 37,-396 97,-396 97,-366 37,-366"/>
<polygon fill="none" stroke="black" points="37,-366 37,-396 97,-396 97,-366 37,-366"/>
<text xml:space="preserve" text-anchor="start" x="62.88" y="-378.3" font-family="Arial, Helvetica, sans-serif" font-weight="bold" font-size="11.00">A</text>
<polygon fill="#c8e6c9" stroke="none" points="97,-366 97,-396 157,-396 157,-366 97,-366"/>
<polygon fill="none" stroke="black" points="97,-366 97,-396 157,-396 157,-366 97,-366"/>
<text xml:space="preserve" text-anchor="start" x="122.88" y="-378.3" font-family="Arial, Helvetica, sans-serif" font-weight="bold" font-size="11.00">B</text>
<polygon fill="#f5f5f5" stroke="none" points="37,-346.75 37,-366 97,-366 97,-346.75 37,-346.75"/>
<text xml:space="preserve" text-anchor="start" x="53.88" y="-353" font-family="monospace" font-size="9.00" fill="#333333">ts: 1</text>
<polygon fill="#f5f5f5" stroke="none" points="97,-346.75 97,-366 157,-366 157,-346.75 97,-346.75"/>
<text xml:space="preserve" text-anchor="start" x="113.88" y="-353" font-family="monospace" font-size="9.00" fill="#333333">ts: 2</text>
</g>
<!-- step1&#45;&gt;step2 -->
<g id="edge1" class="edge">
<title>step1&#45;&gt;step2</title>
<path fill="none" stroke="#78909c" stroke-width="1.5" d="M97,-517.55C97,-495.33 97,-468.29 97,-444.62"/>
<polygon fill="#78909c" stroke="#78909c" stroke-width="1.5" points="100.5,-444.87 97,-434.87 93.5,-444.87 100.5,-444.87"/>
<text xml:space="preserve" text-anchor="middle" x="109.75" y="-471.5" font-family="Arial, Helvetica, sans-serif" font-size="10.00" fill="#607d8b">add B</text>
</g>
<!-- step3 -->
<g id="node3" class="node">
<title>step3</title>
<polygon fill="#fff3e0" stroke="none" points="0,-237.75 0,-267.5 194,-267.5 194,-237.75 0,-237.75"/>
<polyline fill="none" stroke="black" points="0,-237.75 194,-237.75"/>
<text xml:space="preserve" text-anchor="start" x="11.5" y="-248.2" font-family="Arial, Helvetica, sans-serif" font-weight="bold" font-size="12.00">Step 3</text>
<text xml:space="preserve" text-anchor="start" x="47.5" y="-248.2" font-family="Arial, Helvetica, sans-serif" font-size="14.00">: </text>
<text xml:space="preserve" text-anchor="start" x="55" y="-248.2" font-family="Arial, Helvetica, sans-serif" font-size="14.00" fill="#e65100">put(C) — Cache Full!</text>
<polygon fill="none" stroke="black" points="0,-174.5 0,-237.75 194,-237.75 194,-174.5 0,-174.5"/>
<polygon fill="#c8e6c9" stroke="none" points="7,-200.75 7,-230.75 67,-230.75 67,-200.75 7,-200.75"/>
<polygon fill="none" stroke="black" points="7,-200.75 7,-230.75 67,-230.75 67,-200.75 7,-200.75"/>
<text xml:space="preserve" text-anchor="start" x="32.88" y="-213.05" font-family="Arial, Helvetica, sans-serif" font-weight="bold" font-size="11.00">A</text>
<polygon fill="#c8e6c9" stroke="none" points="67,-200.75 67,-230.75 127,-230.75 127,-200.75 67,-200.75"/>
<polygon fill="none" stroke="black" points="67,-200.75 67,-230.75 127,-230.75 127,-200.75 67,-200.75"/>
<text xml:space="preserve" text-anchor="start" x="92.88" y="-213.05" font-family="Arial, Helvetica, sans-serif" font-weight="bold" font-size="11.00">B</text>
<polygon fill="#c8e6c9" stroke="none" points="127,-200.75 127,-230.75 187,-230.75 187,-200.75 127,-200.75"/>
<polygon fill="none" stroke="black" points="127,-200.75 127,-230.75 187,-230.75 187,-200.75 127,-200.75"/>
<text xml:space="preserve" text-anchor="start" x="152.88" y="-213.05" font-family="Arial, Helvetica, sans-serif" font-weight="bold" font-size="11.00">C</text>
<polygon fill="#f5f5f5" stroke="none" points="7,-181.5 7,-200.75 67,-200.75 67,-181.5 7,-181.5"/>
<text xml:space="preserve" text-anchor="start" x="23.88" y="-187.75" font-family="monospace" font-size="9.00" fill="#333333">ts: 1</text>
<polygon fill="#f5f5f5" stroke="none" points="67,-181.5 67,-200.75 127,-200.75 127,-181.5 67,-181.5"/>
<text xml:space="preserve" text-anchor="start" x="83.88" y="-187.75" font-family="monospace" font-size="9.00" fill="#333333">ts: 2</text>
<polygon fill="#f5f5f5" stroke="none" points="127,-181.5 127,-200.75 187,-200.75 187,-181.5 127,-181.5"/>
<text xml:space="preserve" text-anchor="start" x="143.88" y="-187.75" font-family="monospace" font-size="9.00" fill="#333333">ts: 3</text>
<polygon fill="#fff3e0" stroke="none" points="0,-150 0,-174.5 194,-174.5 194,-150 0,-150"/>
<polygon fill="none" stroke="black" points="0,-150 0,-174.5 194,-174.5 194,-150 0,-150"/>
<text xml:space="preserve" text-anchor="start" x="56.88" y="-159.95" font-family="Arial, Helvetica, sans-serif" font-style="italic" font-size="9.00" fill="#333333">maxsize=3 reached</text>
</g>
<!-- step2&#45;&gt;step3 -->
<g id="edge2" class="edge">
<title>step2&#45;&gt;step3</title>
<path fill="none" stroke="#78909c" stroke-width="1.5" d="M97,-340.05C97,-321.63 97,-299.91 97,-279.54"/>
<polygon fill="#78909c" stroke="#78909c" stroke-width="1.5" points="100.5,-279.67 97,-269.67 93.5,-279.67 100.5,-279.67"/>
<text xml:space="preserve" text-anchor="middle" x="110.12" y="-294" font-family="Arial, Helvetica, sans-serif" font-size="10.00" fill="#607d8b">add C</text>
</g>
<!-- step4 -->
<g id="node4" class="node">
<title>step4</title>
<polygon fill="#ffebee" stroke="none" points="212,-592.75 212,-622.5 466,-622.5 466,-592.75 212,-592.75"/>
<polyline fill="none" stroke="black" points="212,-592.75 466,-592.75"/>
<text xml:space="preserve" text-anchor="start" x="265.12" y="-603.2" font-family="Arial, Helvetica, sans-serif" font-weight="bold" font-size="12.00">Step 4</text>
<text xml:space="preserve" text-anchor="start" x="301.12" y="-603.2" font-family="Arial, Helvetica, sans-serif" font-size="14.00">: </text>
<text xml:space="preserve" text-anchor="start" x="308.62" y="-603.2" font-family="Arial, Helvetica, sans-serif" font-size="14.00" fill="#c62828">put(D) — Evict A!</text>
<polygon fill="none" stroke="black" points="212,-529.5 212,-592.75 466,-592.75 466,-529.5 212,-529.5"/>
<polygon fill="#ffcdd2" stroke="none" points="219,-555.75 219,-585.75 279,-585.75 279,-555.75 219,-555.75"/>
<polygon fill="none" stroke="black" points="219,-555.75 219,-585.75 279,-585.75 279,-555.75 219,-555.75"/>
<text xml:space="preserve" text-anchor="start" x="244.88" y="-568.05" font-family="Arial, Helvetica, sans-serif" font-weight="bold" text-decoration="line-through" font-size="11.00" fill="#c62828">A</text>
<polygon fill="#c8e6c9" stroke="none" points="279,-555.75 279,-585.75 339,-585.75 339,-555.75 279,-555.75"/>
<polygon fill="none" stroke="black" points="279,-555.75 279,-585.75 339,-585.75 339,-555.75 279,-555.75"/>
<text xml:space="preserve" text-anchor="start" x="304.88" y="-568.05" font-family="Arial, Helvetica, sans-serif" font-weight="bold" font-size="11.00">B</text>
<polygon fill="#c8e6c9" stroke="none" points="339,-555.75 339,-585.75 399,-585.75 399,-555.75 339,-555.75"/>
<polygon fill="none" stroke="black" points="339,-555.75 339,-585.75 399,-585.75 399,-555.75 339,-555.75"/>
<text xml:space="preserve" text-anchor="start" x="364.88" y="-568.05" font-family="Arial, Helvetica, sans-serif" font-weight="bold" font-size="11.00">C</text>
<polygon fill="#81c784" stroke="none" points="399,-555.75 399,-585.75 459,-585.75 459,-555.75 399,-555.75"/>
<polygon fill="none" stroke="black" points="399,-555.75 399,-585.75 459,-585.75 459,-555.75 399,-555.75"/>
<text xml:space="preserve" text-anchor="start" x="424.88" y="-568.05" font-family="Arial, Helvetica, sans-serif" font-weight="bold" font-size="11.00">D</text>
<polygon fill="#ffcdd2" stroke="none" points="219,-536.5 219,-555.75 279,-555.75 279,-536.5 219,-536.5"/>
<text xml:space="preserve" text-anchor="start" x="228" y="-542.75" font-family="monospace" font-size="9.00" fill="#c62828">evicted!</text>
<polygon fill="#f5f5f5" stroke="none" points="279,-536.5 279,-555.75 339,-555.75 339,-536.5 279,-536.5"/>
<text xml:space="preserve" text-anchor="start" x="295.88" y="-542.75" font-family="monospace" font-size="9.00" fill="#333333">ts: 2</text>
<polygon fill="#f5f5f5" stroke="none" points="339,-536.5 339,-555.75 399,-555.75 399,-536.5 339,-536.5"/>
<text xml:space="preserve" text-anchor="start" x="355.88" y="-542.75" font-family="monospace" font-size="9.00" fill="#333333">ts: 3</text>
<polygon fill="#81c784" stroke="none" points="399,-536.5 399,-555.75 459,-555.75 459,-536.5 399,-536.5"/>
<text xml:space="preserve" text-anchor="start" x="415.88" y="-542.75" font-family="monospace" font-size="9.00" fill="#1b5e20">ts: 4</text>
<polygon fill="#ffebee" stroke="none" points="212,-505 212,-529.5 466,-529.5 466,-505 212,-505"/>
<polygon fill="none" stroke="black" points="212,-505 212,-529.5 466,-529.5 466,-505 212,-505"/>
<text xml:space="preserve" text-anchor="start" x="290.25" y="-514.95" font-family="Arial, Helvetica, sans-serif" font-weight="bold" font-size="9.00" fill="#333333">A</text>
<text xml:space="preserve" text-anchor="start" x="297" y="-514.95" font-family="Arial, Helvetica, sans-serif" font-size="9.00" fill="#333333"> removed (oldest ts=</text>
<text xml:space="preserve" text-anchor="start" x="379.5" y="-514.95" font-family="Arial, Helvetica, sans-serif" font-weight="bold" font-size="9.00" fill="#333333">1</text>
<text xml:space="preserve" text-anchor="start" x="384.75" y="-514.95" font-family="Arial, Helvetica, sans-serif" font-size="9.00" fill="#333333">)</text>
</g>
<!-- step3&#45;&gt;step4 -->
<!-- step5 -->
<g id="node5" class="node">
<title>step5</title>
<polygon fill="#e3f2fd" stroke="none" points="242,-415.25 242,-445 436,-445 436,-415.25 242,-415.25"/>
<polyline fill="none" stroke="black" points="242,-415.25 436,-415.25"/>
<text xml:space="preserve" text-anchor="start" x="256.5" y="-425.7" font-family="Arial, Helvetica, sans-serif" font-weight="bold" font-size="12.00">Step 5</text>
<text xml:space="preserve" text-anchor="start" x="292.5" y="-425.7" font-family="Arial, Helvetica, sans-serif" font-size="14.00">: </text>
<text xml:space="preserve" text-anchor="start" x="300" y="-425.7" font-family="Arial, Helvetica, sans-serif" font-size="14.00" fill="#1976d2">get(B) — Cache Hit!</text>
<polygon fill="none" stroke="black" points="242,-352 242,-415.25 436,-415.25 436,-352 242,-352"/>
<polygon fill="#c8e6c9" stroke="none" points="249,-378.25 249,-408.25 309,-408.25 309,-378.25 249,-378.25"/>
<polygon fill="none" stroke="black" points="249,-378.25 249,-408.25 309,-408.25 309,-378.25 249,-378.25"/>
<text xml:space="preserve" text-anchor="start" x="274.88" y="-390.55" font-family="Arial, Helvetica, sans-serif" font-weight="bold" font-size="11.00">C</text>
<polygon fill="#c8e6c9" stroke="none" points="309,-378.25 309,-408.25 369,-408.25 369,-378.25 309,-378.25"/>
<polygon fill="none" stroke="black" points="309,-378.25 309,-408.25 369,-408.25 369,-378.25 309,-378.25"/>
<text xml:space="preserve" text-anchor="start" x="334.88" y="-390.55" font-family="Arial, Helvetica, sans-serif" font-weight="bold" font-size="11.00">D</text>
<polygon fill="#bbdefb" stroke="none" points="369,-378.25 369,-408.25 429,-408.25 429,-378.25 369,-378.25"/>
<polygon fill="none" stroke="black" points="369,-378.25 369,-408.25 429,-408.25 429,-378.25 369,-378.25"/>
<text xml:space="preserve" text-anchor="start" x="394.88" y="-390.55" font-family="Arial, Helvetica, sans-serif" font-weight="bold" font-size="11.00">B</text>
<polygon fill="#f5f5f5" stroke="none" points="249,-359 249,-378.25 309,-378.25 309,-359 249,-359"/>
<text xml:space="preserve" text-anchor="start" x="265.88" y="-365.25" font-family="monospace" font-size="9.00" fill="#333333">ts: 3</text>
<polygon fill="#f5f5f5" stroke="none" points="309,-359 309,-378.25 369,-378.25 369,-359 309,-359"/>
<text xml:space="preserve" text-anchor="start" x="325.88" y="-365.25" font-family="monospace" font-size="9.00" fill="#333333">ts: 4</text>
<polygon fill="#bbdefb" stroke="none" points="369,-359 369,-378.25 429,-378.25 429,-359 369,-359"/>
<text xml:space="preserve" text-anchor="start" x="380.62" y="-365.25" font-family="monospace" font-size="9.00" fill="#1565c0">ts: 5 ↑</text>
<polygon fill="#e3f2fd" stroke="none" points="242,-327.5 242,-352 436,-352 436,-327.5 242,-327.5"/>
<polygon fill="none" stroke="black" points="242,-327.5 242,-352 436,-352 436,-327.5 242,-327.5"/>
<text xml:space="preserve" text-anchor="start" x="284.25" y="-337.45" font-family="Arial, Helvetica, sans-serif" font-style="italic" font-size="9.00" fill="#333333">B&#39;s timestamp updated to 5</text>
</g>
<!-- step4&#45;&gt;step5 -->
<g id="edge4" class="edge">
<title>step4&#45;&gt;step5</title>
<path fill="none" stroke="#1976d2" stroke-width="1.5" d="M339,-505.28C339,-489.83 339,-472.95 339,-456.91"/>
<polygon fill="#1976d2" stroke="#1976d2" stroke-width="1.5" points="342.5,-457.11 339,-447.11 335.5,-457.11 342.5,-457.11"/>
<text xml:space="preserve" text-anchor="middle" x="350.62" y="-477.5" font-family="Arial, Helvetica, sans-serif" font-size="10.00" fill="#607d8b">get B</text>
<text xml:space="preserve" text-anchor="middle" x="350.62" y="-465.5" font-family="Arial, Helvetica, sans-serif" font-size="10.00" fill="#607d8b">(hit)</text>
</g>
<!-- step6 -->
<g id="node6" class="node">
<title>step6</title>
<polygon fill="#ffebee" stroke="none" points="212,-237.75 212,-267.5 466,-267.5 466,-237.75 212,-237.75"/>
<polyline fill="none" stroke="black" points="212,-237.75 466,-237.75"/>
<text xml:space="preserve" text-anchor="start" x="264.75" y="-248.2" font-family="Arial, Helvetica, sans-serif" font-weight="bold" font-size="12.00">Step 6</text>
<text xml:space="preserve" text-anchor="start" x="300.75" y="-248.2" font-family="Arial, Helvetica, sans-serif" font-size="14.00">: </text>
<text xml:space="preserve" text-anchor="start" x="308.25" y="-248.2" font-family="Arial, Helvetica, sans-serif" font-size="14.00" fill="#c62828">put(E) — Evict C!</text>
<polygon fill="none" stroke="black" points="212,-174.5 212,-237.75 466,-237.75 466,-174.5 212,-174.5"/>
<polygon fill="#ffcdd2" stroke="none" points="219,-200.75 219,-230.75 279,-230.75 279,-200.75 219,-200.75"/>
<polygon fill="none" stroke="black" points="219,-200.75 219,-230.75 279,-230.75 279,-200.75 219,-200.75"/>
<text xml:space="preserve" text-anchor="start" x="244.88" y="-213.05" font-family="Arial, Helvetica, sans-serif" font-weight="bold" text-decoration="line-through" font-size="11.00" fill="#c62828">C</text>
<polygon fill="#c8e6c9" stroke="none" points="279,-200.75 279,-230.75 339,-230.75 339,-200.75 279,-200.75"/>
<polygon fill="none" stroke="black" points="279,-200.75 279,-230.75 339,-230.75 339,-200.75 279,-200.75"/>
<text xml:space="preserve" text-anchor="start" x="304.88" y="-213.05" font-family="Arial, Helvetica, sans-serif" font-weight="bold" font-size="11.00">D</text>
<polygon fill="#bbdefb" stroke="none" points="339,-200.75 339,-230.75 399,-230.75 399,-200.75 339,-200.75"/>
<polygon fill="none" stroke="black" points="339,-200.75 339,-230.75 399,-230.75 399,-200.75 339,-200.75"/>
<text xml:space="preserve" text-anchor="start" x="364.88" y="-213.05" font-family="Arial, Helvetica, sans-serif" font-weight="bold" font-size="11.00">B</text>
<polygon fill="#81c784" stroke="none" points="399,-200.75 399,-230.75 459,-230.75 459,-200.75 399,-200.75"/>
<polygon fill="none" stroke="black" points="399,-200.75 399,-230.75 459,-230.75 459,-200.75 399,-200.75"/>
<text xml:space="preserve" text-anchor="start" x="425.25" y="-213.05" font-family="Arial, Helvetica, sans-serif" font-weight="bold" font-size="11.00">E</text>
<polygon fill="#ffcdd2" stroke="none" points="219,-181.5 219,-200.75 279,-200.75 279,-181.5 219,-181.5"/>
<text xml:space="preserve" text-anchor="start" x="228" y="-187.75" font-family="monospace" font-size="9.00" fill="#c62828">evicted!</text>
<polygon fill="#f5f5f5" stroke="none" points="279,-181.5 279,-200.75 339,-200.75 339,-181.5 279,-181.5"/>
<text xml:space="preserve" text-anchor="start" x="295.88" y="-187.75" font-family="monospace" font-size="9.00" fill="#333333">ts: 4</text>
<polygon fill="#bbdefb" stroke="none" points="339,-181.5 339,-200.75 399,-200.75 399,-181.5 339,-181.5"/>
<text xml:space="preserve" text-anchor="start" x="355.88" y="-187.75" font-family="monospace" font-size="9.00" fill="#1565c0">ts: 5</text>
<polygon fill="#81c784" stroke="none" points="399,-181.5 399,-200.75 459,-200.75 459,-181.5 399,-181.5"/>
<text xml:space="preserve" text-anchor="start" x="415.88" y="-187.75" font-family="monospace" font-size="9.00" fill="#1b5e20">ts: 6</text>
<polygon fill="#ffebee" stroke="none" points="212,-150 212,-174.5 466,-174.5 466,-150 212,-150"/>
<polygon fill="none" stroke="black" points="212,-150 212,-174.5 466,-174.5 466,-150 212,-150"/>
<text xml:space="preserve" text-anchor="start" x="290.25" y="-159.95" font-family="Arial, Helvetica, sans-serif" font-weight="bold" font-size="9.00" fill="#333333">C</text>
<text xml:space="preserve" text-anchor="start" x="297" y="-159.95" font-family="Arial, Helvetica, sans-serif" font-size="9.00" fill="#333333"> removed (oldest ts=</text>
<text xml:space="preserve" text-anchor="start" x="379.5" y="-159.95" font-family="Arial, Helvetica, sans-serif" font-weight="bold" font-size="9.00" fill="#333333">3</text>
<text xml:space="preserve" text-anchor="start" x="384.75" y="-159.95" font-family="Arial, Helvetica, sans-serif" font-size="9.00" fill="#333333">)</text>
</g>
<!-- step5&#45;&gt;step6 -->
<g id="edge5" class="edge">
<title>step5&#45;&gt;step6</title>
<path fill="none" stroke="#c62828" stroke-width="2" d="M339,-327.78C339,-312.63 339,-296.11 339,-280.35"/>
<polygon fill="#c62828" stroke="#c62828" stroke-width="2" points="342.5,-280.37 339,-270.37 335.5,-280.37 342.5,-280.37"/>
<text xml:space="preserve" text-anchor="middle" x="351.75" y="-300" font-family="Arial, Helvetica, sans-serif" font-size="10.00" fill="#607d8b">add E</text>
<text xml:space="preserve" text-anchor="middle" x="351.75" y="-288" font-family="Arial, Helvetica, sans-serif" font-size="10.00" fill="#607d8b">(full!)</text>
</g>
<!-- legend -->
<g id="node7" class="node">
<title>legend</title>
<polygon fill="#f5f5f5" stroke="none" points="274,0 274,-113 404,-113 404,0 274,0"/>
<polygon fill="none" stroke="black" points="274,0 274,-113 404,-113 404,0 274,0"/>
<polygon fill="#e3f2fd" stroke="none" points="275,-93.5 275,-112 403,-112 403,-93.5 275,-93.5"/>
<text xml:space="preserve" text-anchor="start" x="279" y="-100.45" font-family="Arial, Helvetica, sans-serif" font-weight="bold" font-size="9.00" fill="#333333">Legend:</text>
<polygon fill="#f5f5f5" stroke="none" points="275,-75 275,-93.5 403,-93.5 403,-75 275,-75"/>
<text xml:space="preserve" text-anchor="start" x="309.38" y="-81.95" font-family="Arial, Helvetica, sans-serif" font-size="9.00" fill="#2e7d32">■</text>
<text xml:space="preserve" text-anchor="start" x="314.62" y="-81.95" font-family="Arial, Helvetica, sans-serif" font-size="9.00"> </text>
<text xml:space="preserve" text-anchor="start" x="316.88" y="-81.95" font-family="Arial, Helvetica, sans-serif" font-size="9.00" fill="#333333">Cached item</text>
<polygon fill="#f5f5f5" stroke="none" points="275,-56.5 275,-75 403,-75 403,-56.5 275,-56.5"/>
<text xml:space="preserve" text-anchor="start" x="310.5" y="-63.45" font-family="Arial, Helvetica, sans-serif" font-size="9.00" fill="#c62828">■</text>
<text xml:space="preserve" text-anchor="start" x="315.75" y="-63.45" font-family="Arial, Helvetica, sans-serif" font-size="9.00"> </text>
<text xml:space="preserve" text-anchor="start" x="318" y="-63.45" font-family="Arial, Helvetica, sans-serif" font-size="9.00" fill="#333333">Evicted item</text>
<polygon fill="#f5f5f5" stroke="none" points="275,-38 275,-56.5 403,-56.5 403,-38 275,-38"/>
<text xml:space="preserve" text-anchor="start" x="296.62" y="-44.95" font-family="Arial, Helvetica, sans-serif" font-size="9.00" fill="#1976d2">■</text>
<text xml:space="preserve" text-anchor="start" x="301.88" y="-44.95" font-family="Arial, Helvetica, sans-serif" font-size="9.00"> </text>
<text xml:space="preserve" text-anchor="start" x="304.12" y="-44.95" font-family="Arial, Helvetica, sans-serif" font-size="9.00" fill="#333333">Recently accessed</text>
<polygon fill="#f5f5f5" stroke="none" points="275,-19.5 275,-38 403,-38 403,-19.5 275,-19.5"/>
<text xml:space="preserve" text-anchor="start" x="308.25" y="-26.45" font-family="Arial, Helvetica, sans-serif" font-size="9.00" fill="#1b5e20">■</text>
<text xml:space="preserve" text-anchor="start" x="313.5" y="-26.45" font-family="Arial, Helvetica, sans-serif" font-size="9.00"> </text>
<text xml:space="preserve" text-anchor="start" x="315.75" y="-26.45" font-family="Arial, Helvetica, sans-serif" font-size="9.00" fill="#333333">Newly added</text>
<polygon fill="#f5f5f5" stroke="none" points="275,-1 275,-19.5 403,-19.5 403,-1 275,-1"/>
<text xml:space="preserve" text-anchor="start" x="279" y="-7.95" font-family="Arial, Helvetica, sans-serif" font-style="italic" font-size="9.00" fill="#333333">ts = timestamp (lower = older)</text>
</g>
<!-- step6&#45;&gt;legend -->
</g>
</svg>
